<?xml version="1.0" encoding="UTF-8"?>
<svg id="Ebene_1" data-name="Ebene 1" xmlns="http://www.w3.org/2000/svg" xmlns:xlink="http://www.w3.org/1999/xlink" viewBox="0 0 3149.23 894">
  <defs>
    <style>
      .cls-1 {
        fill: #00b2ca;
      }

      .cls-1, .cls-2, .cls-3 {
        stroke-width: 0px;
      }

      .cls-2, .cls-4 {
        fill: none;
      }

      .cls-5 {
        clip-path: url(#clippath-1);
      }

      .cls-6 {
        clip-path: url(#clippath);
      }

      .cls-4 {
        stroke: #00b2ca;
        stroke-miterlimit: 10;
        stroke-width: 104.3px;
      }

      .cls-3 {
        fill: #274060;
      }
    </style>
    <clipPath id="clippath">
      <rect class="cls-2" y="0" width="894" height="894"/>
    </clipPath>
    <clipPath id="clippath-1">
      <rect class="cls-2" y="0" width="894" height="894"/>
    </clipPath>
  </defs>
  <g>
    <path class="cls-3" d="m871.6,821v-139.65h56.64c28.52,0,42.77,12.47,42.77,37.4,0,27.15-19.5,43.72-58.5,49.71l-3.71-15.23c28.65-4.23,42.97-15.46,42.97-33.69,0-15.49-8.4-23.24-25.2-23.24h-36.91v124.71h-18.07Z"/>
    <path class="cls-3" d="m1013.01,681.35v125h73.05v14.65h-91.11v-139.65h18.07Z"/>
    <path class="cls-3" d="m1106.56,767.09v-85.74h18.07v85.74c0,26.82,13.35,40.23,40.04,40.23s40.04-13.41,40.04-40.23v-85.74h18.07v85.74c0,36.59-19.37,54.88-58.11,54.88s-58.11-18.29-58.11-54.88Z"/>
    <path class="cls-3" d="m1255,821v-139.65h22.95l51.27,116.5,50.29-116.5h21.97v139.65h-16.11v-114.55l-49.61,114.55h-14.26l-50.39-114.55v114.55h-16.11Z"/>
    <path class="cls-3" d="m1434.69,821v-139.65h59.57c26.56,0,39.84,10.84,39.84,32.52,0,15.89-8.66,27.25-25.98,34.08,18.49,3.45,27.73,14.03,27.73,31.74,0,27.54-14.55,41.31-43.65,41.31h-57.52Zm56.45-14.65c16.67,0,25-8.46,25-25.39s-11.17-24.71-33.5-24.71h-7.81v-11.82c26.69-3.58,40.04-13.22,40.04-28.91,0-13.02-7.42-19.53-22.27-19.53h-39.84v110.35h38.38Z"/>
    <path class="cls-3" d="m1655.88,681.35v14.65h-73.24v46.88h69.82v14.65h-69.82v48.83h74.71v14.65h-92.77v-139.65h91.31Z"/>
    <path class="cls-3" d="m1684.69,821v-139.65h59.57c26.56,0,39.84,11.17,39.84,33.5,0,18.16-12.99,31.61-38.96,40.33l47.95,65.82h-23.83l-44.43-62.79v-11.82c26.69-4.23,40.04-14.49,40.04-30.76,0-12.89-7.42-19.34-22.27-19.34h-39.84v124.71h-18.07Z"/>
    <path class="cls-3" d="m1881.95,681.35v139.65h-18.07v-139.65h18.07Z"/>
    <path class="cls-3" d="m1918.09,821v-139.65h18.07l85.45,112.5v-112.5h17.09v139.65h-18.07l-85.45-113.48v113.48h-17.09Z"/>
    <path class="cls-3" d="m2196.6,681.35l-59.28,139.65h-20.02l-59.57-139.65h19.04l51.17,120.9,49.9-120.9h18.75Z"/>
    <path class="cls-3" d="m2306.95,681.35v14.65h-73.24v46.88h69.82v14.65h-69.82v48.83h74.71v14.65h-92.77v-139.65h91.31Z"/>
    <path class="cls-3" d="m2335.76,821v-139.65h18.07l85.45,112.5v-112.5h17.09v139.65h-18.07l-85.45-113.48v113.48h-17.09Z"/>
    <path class="cls-3" d="m2583.81,681.35v14.65h-43.95v125h-18.07v-125h-43.95v-14.65h105.96Z"/>
    <path class="cls-3" d="m2600.41,751.37c0-47.33,23.37-71,70.12-71s69.04,23.67,69.04,71-23.01,70.61-69.04,70.61-70.12-23.54-70.12-70.61Zm70.12,55.96c33.33,0,50-18.85,50-56.54s-16.67-55.76-50-55.76-51.07,18.59-51.07,55.76,17.02,56.54,51.07,56.54Z"/>
    <path class="cls-3" d="m2767.89,821v-139.65h59.57c26.56,0,39.84,11.17,39.84,33.5,0,18.16-12.99,31.61-38.96,40.33l47.95,65.82h-23.83l-44.43-62.79v-11.82c26.69-4.23,40.04-14.49,40.04-30.76,0-12.89-7.42-19.34-22.27-19.34h-39.84v124.71h-18.07Z"/>
    <path class="cls-3" d="m2881.17,681.35h20.02l40.23,72.95,40.82-72.95h21l-53.32,90.82v48.83h-18.07v-48.83l-50.68-90.82Z"/>
  </g>
  <g>
    <path class="cls-1" d="m871.35,540V175.5h90.45c21.9,0,39.38,3.98,52.42,11.92,13.05,7.95,22.57,19.43,28.58,34.43,6,15,9,33.15,9,54.45,0,19.2-3.38,35.85-10.12,49.95-6.75,14.1-16.73,24.98-29.92,32.62-13.21,7.65-29.7,11.48-49.5,11.48h-40.05v169.65h-50.85Zm50.85-206.1h23.4c14.7,0,26.25-1.65,34.65-4.95,8.4-3.3,14.4-9.07,18-17.33,3.6-8.25,5.4-19.87,5.4-34.88,0-17.4-1.28-30.75-3.83-40.05-2.55-9.3-7.88-15.75-15.98-19.35-8.1-3.6-20.7-5.4-37.8-5.4h-23.85v121.95Z"/>
    <path class="cls-1" d="m1096.35,540V175.5h49.95v364.5h-49.95Z"/>
    <path class="cls-1" d="m1211.54,540V175.5h90.45c21.9,0,39.38,3.98,52.42,11.92,13.05,7.95,22.57,19.43,28.58,34.43,6,15,9,33.15,9,54.45,0,19.2-3.38,35.85-10.12,49.95-6.75,14.1-16.73,24.98-29.92,32.62-13.21,7.65-29.7,11.48-49.5,11.48h-40.05v169.65h-50.85Zm50.85-206.1h23.4c14.7,0,26.25-1.65,34.65-4.95,8.4-3.3,14.4-9.07,18-17.33,3.6-8.25,5.4-19.87,5.4-34.88,0-17.4-1.28-30.75-3.83-40.05-2.55-9.3-7.88-15.75-15.98-19.35-8.1-3.6-20.7-5.4-37.8-5.4h-23.85v121.95Z"/>
    <path class="cls-1" d="m1433.84,540V175.5h141.3v37.8h-90.45v120.6h73.35v36h-73.35v133.65h91.35v36.45h-142.2Z"/>
    <path class="cls-3" d="m1663.34,540V213.3h-61.65v-37.8h172.35v37.8h-59.85v326.7h-50.85Z"/>
    <path class="cls-3" d="m1815.44,540V175.5h73.35c24.3,0,44.4,3.23,60.3,9.67,15.9,6.46,27.67,16.8,35.33,31.05,7.65,14.25,11.47,32.93,11.47,56.02,0,14.1-1.5,26.93-4.5,38.48-3,11.55-7.8,21.3-14.4,29.25-6.6,7.95-15.3,13.73-26.1,17.32l51.75,182.7h-49.05l-47.7-171h-39.6v171h-50.85Zm50.85-207.45h19.35c14.4,0,26.1-1.8,35.1-5.4s15.59-9.75,19.8-18.45c4.2-8.7,6.3-20.85,6.3-36.45,0-21.3-3.9-36.67-11.7-46.12-7.8-9.45-23.25-14.17-46.35-14.17h-22.5v120.6Z"/>
    <path class="cls-3" d="m2035.49,540l77.4-364.5h49.05l77.85,364.5h-48.15l-16.65-91.8h-74.25l-17.55,91.8h-47.7Zm72-128.25h60.75l-30.6-164.25-30.15,164.25Z"/>
    <path class="cls-3" d="m2372.53,544.05c-25.8,0-45.83-5.4-60.08-16.2-14.25-10.8-24.15-25.35-29.7-43.65-5.55-18.3-8.33-38.7-8.33-61.2v-128.7c0-24.6,2.77-46.05,8.33-64.35,5.55-18.3,15.45-32.47,29.7-42.53,14.25-10.05,34.27-15.07,60.08-15.07,22.79,0,40.87,4.2,54.22,12.6,13.35,8.4,22.95,20.4,28.8,36,5.85,15.6,8.78,34.35,8.78,56.25v28.8h-48.15v-25.65c0-13.5-.67-25.43-2.02-35.77-1.35-10.35-5.03-18.37-11.03-24.08-6-5.7-16.05-8.55-30.15-8.55s-24.91,3.08-31.5,9.22c-6.6,6.15-10.88,14.85-12.83,26.1-1.96,11.25-2.92,24.38-2.92,39.38v144.45c0,18.3,1.5,32.78,4.5,43.43,3,10.65,7.95,18.22,14.85,22.72,6.9,4.5,16.2,6.75,27.9,6.75,13.79,0,23.7-3.07,29.7-9.22,6-6.15,9.75-14.62,11.25-25.43,1.5-10.8,2.25-23.4,2.25-37.8v-27h48.15v27c0,22.21-2.7,41.78-8.1,58.73-5.4,16.95-14.7,30.15-27.9,39.6-13.21,9.45-31.8,14.17-55.8,14.17Z"/>
    <path class="cls-3" d="m2519.23,540V175.5h50.85v171.9l83.7-171.9h47.25l-72,160.65,83.7,203.85h-49.5l-69.75-171-23.4,42.3v128.7h-50.85Z"/>
    <path class="cls-3" d="m2748.28,540V175.5h141.3v37.8h-90.45v120.6h73.35v36h-73.35v133.65h91.35v36.45h-142.2Z"/>
    <path class="cls-3" d="m2937.73,540V175.5h73.35c24.3,0,44.4,3.23,60.3,9.67,15.9,6.46,27.67,16.8,35.33,31.05,7.65,14.25,11.47,32.93,11.47,56.02,0,14.1-1.5,26.93-4.5,38.48-3,11.55-7.8,21.3-14.4,29.25-6.6,7.95-15.3,13.73-26.1,17.32l51.75,182.7h-49.05l-47.7-171h-39.6v171h-50.85Zm50.85-207.45h19.35c14.4,0,26.1-1.8,35.1-5.4s15.59-9.75,19.8-18.45c4.2-8.7,6.3-20.85,6.3-36.45,0-21.3-3.9-36.67-11.7-46.12-7.8-9.45-23.25-14.17-46.35-14.17h-22.5v120.6Z"/>
  </g>
  <g class="cls-6">
    <rect class="cls-1" x="175.49" y="31.46" width="282.47" height="104.3"/>
    <g class="cls-5">
      <path class="cls-4" d="m639.04,394.85c10.08-17.49,29.81-57.27,28.97-110.92-.92-58.4-25.68-98.93-30.63-106.78-3.27-5.19-14.45-22.38-32.28-38.91-55.51-51.44-130.36-54.63-155.62-54.63"/>
      <rect class="cls-1" x="370.21" y="614.58" width="42.49" height="42.49"/>
      <rect class="cls-1" x="436.3" y="614.58" width="42.49" height="42.49"/>
      <rect class="cls-1" x="370.21" y="675.95" width="42.49" height="42.49"/>
      <rect class="cls-1" x="436.3" y="675.95" width="42.49" height="42.49"/>
      <polygon class="cls-1" points="284.07 363.16 284.07 33.94 175.5 33.94 175.5 425.76 175.66 425.76 284.07 363.16"/>
      <polygon class="cls-3" points="175.5 480.64 175.5 860.06 284.07 860.06 284.07 468.24 196.97 468.24 175.5 480.64"/>
      <rect class="cls-3" x="471.08" y="310.45" width="89.45" height="264.07" transform="translate(-125.3 667.94) rotate(-60)"/>
      <polygon class="cls-3" points="423.57 337.41 178.72 478.78 224.02 557.23 475.93 411.79 437.7 345.57 423.57 337.41"/>
    </g>
  </g>
</svg>